<?xml version="1.0" encoding="UTF-8"?>
<svg version="1.1" xmlns="http://www.w3.org/2000/svg" width="1000" height="1000">
<path d="M0 0 C4.58393643 1.52083872 6.62106806 5.35249377 9.25 9.125 C14.88934836 16.95212655 21.30259198 23.60289195 28.23828125 30.28125 C30.72323401 32.68722511 33.04560203 35.1525322 35.29296875 37.78125 C39.90031142 43.14034777 44.97123256 48.04201279 50 53 C60.65729406 63.50729193 60.65729406 63.50729193 64.40625 67.90625 C69.41836242 73.76564809 75.01815378 79.08525886 80.5 84.5 C93.55627461 97.39644845 93.55627461 97.39644845 98.55419922 103.35375977 C100.14752697 105.16797945 101.856188 106.79522514 103.625 108.4375 C135.0905933 139.5976021 150.97911248 185.61375102 151.3125 229.1875 C151.14416783 277.93986299 130.44430572 319.71382281 96.9375 354.3125 C92.22520138 358.86997978 87.1711817 362.97722359 82 367 C80.51113281 368.17369141 80.51113281 368.17369141 78.9921875 369.37109375 C42.14881101 397.53543005 -6.14015038 406.35443451 -51.5 400.8125 C-61.9209911 399.41009976 -71.98106279 397.18054704 -82 394 C-82.76586426 393.75797852 -83.53172852 393.51595703 -84.32080078 393.26660156 C-109.92046216 384.96314221 -132.01594496 370.81008394 -152 353 C-152.52996582 352.53174805 -153.05993164 352.06349609 -153.60595703 351.58105469 C-159.82668381 346.06863778 -165.75880704 340.47191843 -171 334 C-171.4753418 333.41573242 -171.95068359 332.83146484 -172.44042969 332.22949219 C-175.14838842 328.89573779 -177.84498875 325.55282881 -180.5234375 322.1953125 C-181.202854 321.34477295 -181.202854 321.34477295 -181.89599609 320.47705078 C-183 319 -183 319 -184 317 C-182.73713572 327.84443971 -180.83164191 338.41534139 -178.4375 349.0625 C-178.26392975 349.83868683 -178.0903595 350.61487366 -177.91152954 351.4145813 C-165.80882504 405.19760551 -144.77368568 455.98099935 -111.328125 500.03125 C-110 502 -110 502 -110 504 C-115.15099558 504.41374553 -120.30236819 504.82235121 -125.45410156 505.22680664 C-127.19541622 505.36416995 -128.936633 505.5027815 -130.67773438 505.64282227 C-154.68880672 507.57178602 -178.6039434 508.20308773 -202.6875 508.1875 C-204.13726807 508.18755617 -205.58703613 508.18761724 -207.0368042 508.18768311 C-228.41634376 508.18045644 -249.68557023 507.78393486 -271 506 C-272.1977002 505.90396484 -273.39540039 505.80792969 -274.62939453 505.70898438 C-281.09136822 505.18812892 -287.54712984 504.62340164 -294 504 C-294 499.51606859 -293.36666587 498.59499281 -290.88671875 495.02734375 C-290.22091797 494.05466553 -289.55511719 493.0819873 -288.86914062 492.07983398 C-288.14919922 491.04286377 -287.42925781 490.00589355 -286.6875 488.9375 C-280.06448237 479.20573394 -273.85711744 469.37408945 -268.15234375 459.07861328 C-267.09344762 457.16856208 -266.01717062 455.26944457 -264.9375 453.37109375 C-241.68700938 411.41708345 -228.04175873 363.25390725 -221 316 C-221.52207031 316.65484375 -222.04414063 317.3096875 -222.58203125 317.984375 C-228.44652437 325.25593565 -234.56322081 332.23098742 -241 339 C-241.58668457 339.62068359 -242.17336914 340.24136719 -242.77783203 340.88085938 C-252.44154366 351.03841048 -262.57868761 359.87451277 -274 368 C-274.61665527 368.44537109 -275.23331055 368.89074219 -275.86865234 369.34960938 C-315.88048237 398.05823314 -362.49780908 406.67854926 -410.72167969 399.54345703 C-438.16308046 394.99441338 -466.14147181 384.5217962 -488 367 C-489.22396484 366.07767578 -489.22396484 366.07767578 -490.47265625 365.13671875 C-527.44313124 336.41907981 -550.11493742 295.78432152 -556.31689453 249.64233398 C-561.91903011 200.38062125 -547.30788978 154.97167754 -516.75 116.5625 C-508.28690297 106.40977406 -499.0586987 96.88129905 -489.59765625 87.66015625 C-487.5752216 85.58906152 -485.69009815 83.50230805 -483.80859375 81.30859375 C-478.6568893 75.3644267 -472.98292457 69.93840331 -467.3828125 64.421875 C-463.64500043 60.71814632 -459.9552513 57.02928694 -456.53125 53.03125 C-451.30115149 46.93150982 -445.45584983 41.41404148 -439.73828125 35.77734375 C-435.17133675 31.2499399 -430.75304237 26.68370653 -426.56884766 21.80029297 C-424.14367622 19.01734647 -421.55706215 16.41124443 -418.9375 13.8125 C-418.44701172 13.31814453 -417.95652344 12.82378906 -417.45117188 12.31445312 C-408.11217474 3 -408.11217474 3 -405 3 C-403.83349609 4.37915039 -403.83349609 4.37915039 -402.5234375 6.34765625 C-402.02513428 7.08733643 -401.52683105 7.8270166 -401.01342773 8.58911133 C-400.20240601 9.81343872 -400.20240601 9.81343872 -399.375 11.0625 C-398.20809216 12.79758897 -397.04007147 14.53192989 -395.87109375 16.265625 C-395.24831543 17.19181641 -394.62553711 18.11800781 -393.98388672 19.07226562 C-390.51815167 24.18684779 -386.97509216 29.24747746 -383.4375 34.3125 C-375.52212623 45.6495945 -375.52212623 45.6495945 -372 51 C-373.32019038 53.89683198 -374.76802274 56.05091077 -376.94921875 58.36328125 C-377.54283203 58.99556641 -378.13644531 59.62785156 -378.74804688 60.27929688 C-379.38806641 60.95025391 -380.02808594 61.62121094 -380.6875 62.3125 C-381.68040039 63.3634082 -381.68040039 63.3634082 -382.69335938 64.43554688 C-388.00279089 70.02574153 -393.44282277 75.47808263 -398.92114258 80.90209961 C-402.5792648 84.53590891 -406.07080482 88.23772263 -409.3984375 92.1796875 C-412.0567306 95.20106453 -414.96453619 97.97172362 -417.828125 100.796875 C-419.72766635 102.72374788 -421.50022944 104.68838914 -423.25 106.75 C-426.48341704 110.52735635 -429.96723539 114.00655469 -433.5 117.5 C-437.56093609 121.52040665 -441.50293211 125.56224179 -445.203125 129.921875 C-447.06988449 132.08082294 -448.99877651 134.17548323 -450.94091797 136.26660156 C-456.55112212 142.31423736 -461.9142583 148.49916997 -467 155 C-467.43844238 155.55526367 -467.87688477 156.11052734 -468.32861328 156.68261719 C-487.45620677 181.08286079 -496.99936257 209.88277296 -493.3125 240.9375 C-490.93500408 255.38283727 -486.13264019 268.25785387 -479 281 C-478.44441406 281.99773437 -477.88882813 282.99546875 -477.31640625 284.0234375 C-472.8090715 291.56808895 -467.07349716 297.71525077 -461 304 C-460.29617188 304.75539063 -459.59234375 305.51078125 -458.8671875 306.2890625 C-454.06706589 311.3223884 -448.84241626 315.24477198 -443 319 C-442.12988281 319.57621094 -441.25976562 320.15242188 -440.36328125 320.74609375 C-427.5639943 328.76126787 -412.84715191 333.55059677 -398 336 C-396.42798828 336.27457031 -396.42798828 336.27457031 -394.82421875 336.5546875 C-361.08178112 340.48383754 -329.92012602 330.04500735 -303.10546875 309.81640625 C-280.00394035 291.27569462 -262.52846774 269.73642106 -248 244 C-247.53207031 243.1740332 -247.06414062 242.34806641 -246.58203125 241.49707031 C-233.0803375 217.39635787 -224.1699464 191.33498885 -214.92529297 165.39697266 C-211.50974806 155.82699048 -208.10365148 146.30202329 -204 137 C-201.26703681 138.36648159 -201.20504819 139.65373799 -200.1875 142.50610352 C-199.83953369 143.46964249 -199.49156738 144.43318146 -199.13305664 145.42591858 C-198.5721936 147.01139748 -198.5721936 147.01139748 -198 148.62890625 C-197.60482178 149.72476547 -197.20964355 150.82062469 -196.80249023 151.94969177 C-195.52813911 155.48487498 -194.26312582 159.02329175 -193 162.5625 C-185.20665005 184.37926842 -177.14416612 206.08237338 -167 226.9375 C-166.49855469 227.97197266 -165.99710938 229.00644531 -165.48046875 230.07226562 C-153.88467359 253.68952438 -138.9110249 274.73303483 -121 294 C-120.3503125 294.71542969 -119.700625 295.43085937 -119.03125 296.16796875 C-103.00423917 313.08879365 -82.33848951 325.56374499 -60 332 C-59.30986816 332.20882813 -58.61973633 332.41765625 -57.90869141 332.6328125 C-47.13031612 335.78867684 -36.4290999 336.38687032 -25.25 336.4375 C-23.9717334 336.44765137 -22.6934668 336.45780273 -21.37646484 336.46826172 C9.51114224 336.18634629 36.61194265 322.09103408 57.96972656 300.44360352 C77.62715361 279.86835212 87.38683199 253.76020047 88.25 225.4375 C87.30279724 194.71261038 74.69088518 167.97947544 53.73828125 145.9140625 C51.63955051 143.68060582 49.61018367 141.42567105 47.6015625 139.11328125 C44.17649262 135.17688908 40.64367733 131.35676175 37.0625 127.5625 C36.42425293 126.88437256 35.78600586 126.20624512 35.12841797 125.50756836 C33.77865437 124.07358818 32.42838537 122.64008358 31.07763672 121.20703125 C28.97635245 118.97487969 26.88016692 116.73803963 24.78515625 114.5 C18.56674934 107.86364649 12.33564876 101.26963527 5.85546875 94.88671875 C4.06669804 93.06782137 2.40354466 91.19181395 0.75 89.25 C-2.48338967 85.47267562 -5.96700779 81.99317824 -9.5 78.5 C-13.54464825 74.50077809 -17.42267958 70.46292258 -21.1015625 66.12109375 C-25.50490379 61.2013112 -30.29820817 56.63230722 -35 52 C-33.39152981 47.01955617 -30.46013055 43.2716067 -27.375 39.125 C-21.95718189 31.73798209 -16.66130951 24.27550182 -11.4375 16.75 C-10.75929199 15.77434082 -10.08108398 14.79868164 -9.38232422 13.79345703 C-6.21184973 9.2232391 -3.06201216 4.64366221 0 0 Z " fill="#FFFFFF" transform="translate(703,388)"/>
<path d="M0 0 C2.64555128 2.29982583 5.2489281 4.63357954 7.82421875 7.01171875 C9.57001374 8.60706821 11.33288102 10.09935732 13.1875 11.5625 C39.38480432 34.26683041 54.59089824 70.53361501 60 104 C60.18433594 105.13308594 60.36867188 106.26617187 60.55859375 107.43359375 C62.72832075 125.65057802 62.30680943 146.1807211 58 164 C57.70198486 165.25031006 57.70198486 165.25031006 57.39794922 166.52587891 C50.28503842 195.4410601 36.43631459 220.42647641 16 242 C15.11957031 242.94488281 14.23914063 243.88976562 13.33203125 244.86328125 C-14.74302941 274.39033388 -55.16423268 290.89223432 -95.62890625 292.28515625 C-109.32242674 292.55654539 -122.59073418 291.83770341 -136 289 C-136.78777832 288.83371094 -137.57555664 288.66742188 -138.38720703 288.49609375 C-181.18560032 279.08410744 -217.30458118 252.52420171 -241 216 C-251.77673865 199.08341063 -258.68752129 180.53655312 -263 161 C-263.23460937 159.94425781 -263.46921875 158.88851562 -263.7109375 157.80078125 C-271.62716375 114.83517647 -260.82817608 71.02330605 -237.24462891 34.79492188 C-233.58720802 29.52043025 -229.26898366 24.77890821 -225 20 C-224.39542969 19.27425781 -223.79085937 18.54851562 -223.16796875 17.80078125 C-198.04269963 -12.33731528 -158.24352972 -30.87014899 -119.58544922 -34.81689453 C-76.5929707 -37.86168763 -33.74671633 -27.80269243 0 0 Z M-55.5 -3.8125 C-60.92718934 0.44845234 -66.45545157 4.54145032 -72.0625 8.5625 C-83.49290523 16.22550354 -83.49290523 16.22550354 -94 25 C-94.15619025 26.66364608 -94.24390094 28.33377972 -94.30395508 30.00366211 C-94.34261185 31.07245102 -94.38126862 32.14123993 -94.4210968 33.24241638 C-94.55829561 38.16942939 -94.65728926 43.09635354 -94.73461914 48.0246582 C-94.78623048 50.61768285 -94.86114981 53.21035603 -94.96020508 55.80200195 C-96.31924072 70.50076247 -96.31924072 70.50076247 -91.56542969 83.76293945 C-88.72200052 86.44641173 -85.4660168 88.2099944 -82 90 C-80.49023294 91.11162401 -78.999868 92.25055711 -77.5390625 93.42578125 C-76.23694563 94.39149661 -74.93234242 95.35387062 -73.625 96.3125 C-72.30350863 97.28616243 -70.98317756 98.26140181 -69.6640625 99.23828125 C-69.03790039 99.69154785 -68.41173828 100.14481445 -67.76660156 100.61181641 C-66 102 -66 102 -64.50683594 103.57177734 C-62.95072041 105.29847389 -62.95072041 105.29847389 -60 107 C-58.00558065 106.72067175 -58.00558065 106.72067175 -55.92749023 105.86474609 C-55.12974182 105.57147934 -54.33199341 105.27821259 -53.5100708 104.97605896 C-52.68174744 104.6539595 -51.85342407 104.33186005 -51 104 C-50.20954285 103.70106339 -49.41908569 103.40212677 -48.60467529 103.09413147 C-43.23170347 101.03158586 -37.91240166 98.83714537 -32.59643555 96.63256836 C-30.65384175 95.83449898 -28.7054813 95.05032739 -26.75170898 94.2800293 C-23.90667254 93.15647979 -21.08400935 91.98793265 -18.26171875 90.80859375 C-17.39189865 90.47588974 -16.52207855 90.14318573 -15.62590027 89.80039978 C-10.93519285 87.77772267 -8.60021775 86.11494891 -6.64135742 81.31005859 C-6.07044285 79.54757028 -5.52317084 77.77724527 -5 76 C-4.41854761 74.3902382 -3.8283277 72.78361389 -3.22900391 71.18041992 C-1.66671361 66.79556546 -0.13277002 62.40083313 1.39306641 58.00317383 C2.05164119 56.11472455 2.71709533 54.22866131 3.38916016 52.3449707 C4.36658012 49.60378005 5.32221869 46.85584413 6.2734375 44.10546875 C6.57744476 43.26582077 6.88145203 42.42617279 7.19467163 41.56108093 C8.80411037 36.90169043 8.80411037 36.90169043 8.30224609 32.08764648 C-3.4736156 13.20961999 -28.27126502 0.38192582 -48 -8 C-51.25450574 -8 -52.99486453 -5.80205835 -55.5 -3.8125 Z M-164.5625 -4.91015625 C-165.43608154 -4.4601123 -166.30966309 -4.01006836 -167.2097168 -3.54638672 C-168.59090698 -2.81186279 -168.59090698 -2.81186279 -170 -2.0625 C-171.41696167 -1.31250732 -171.41696167 -1.31250732 -172.86254883 -0.54736328 C-184.16217897 5.55294344 -193.68512876 13.17227733 -203 22 C-204.39025391 23.31097656 -204.39025391 23.31097656 -205.80859375 24.6484375 C-211.3667269 29.47508896 -211.3667269 29.47508896 -214 36 C-213.54001964 38.47129849 -213.54001964 38.47129849 -212.63232422 41.08813477 C-212.30803436 42.09920792 -211.98374451 43.11028107 -211.64962769 44.1519928 C-211.28829742 45.23749924 -210.92696716 46.32300568 -210.5546875 47.44140625 C-210.18779816 48.56062973 -209.82090881 49.67985321 -209.44290161 50.83299255 C-208.66302485 53.19930354 -207.87754471 55.56377402 -207.08691406 57.92651367 C-205.88070472 61.54538468 -204.70519962 65.17328989 -203.53125 68.80273438 C-202.77008595 71.0995745 -202.00712453 73.39581992 -201.2421875 75.69140625 C-200.89300262 76.77893692 -200.54381775 77.86646759 -200.18405151 78.98695374 C-199.84084869 79.99487473 -199.49764587 81.00279572 -199.14404297 82.04125977 C-198.85012665 82.92854263 -198.55621033 83.8158255 -198.25338745 84.72999573 C-195.98981408 88.82954309 -191.66762156 90.24298923 -187.54858398 92.11645508 C-186.70098007 92.50307816 -185.85337616 92.88970123 -184.98008728 93.28804016 C-181.14596032 95.01507175 -177.31108359 96.74021964 -173.47094727 98.45385742 C-171.44380701 99.36178785 -169.41971051 100.27654398 -167.39868164 101.19799805 C-164.47941569 102.52877363 -161.55164428 103.83882857 -158.62109375 105.14453125 C-157.71685165 105.56104446 -156.81260956 105.97755768 -155.88096619 106.4066925 C-155.03651443 106.77755478 -154.19206268 107.14841705 -153.32202148 107.53051758 C-152.58209457 107.86344315 -151.84216766 108.19636871 -151.07981873 108.53938293 C-148.96620096 109.20572828 -148.96620096 109.20572828 -146.89247131 108.21000671 C-144.26550298 106.53037791 -141.83358054 104.66858223 -139.375 102.75 C-138.82666504 102.32396484 -138.27833008 101.89792969 -137.71337891 101.45898438 C-135.80624119 99.97606289 -133.90312733 98.48806432 -132 97 C-129.60181654 95.12957867 -127.20285496 93.26016377 -124.80322266 91.39160156 C-123.20287449 90.14491972 -121.60356459 88.89690378 -120.00537109 87.64746094 C-119.26883301 87.07286133 -118.53229492 86.49826172 -117.7734375 85.90625 C-117.11778809 85.39384766 -116.46213867 84.88144531 -115.78662109 84.35351562 C-114.23376738 83.17709844 -112.62096383 82.08064255 -111 81 C-110.40364112 78.62066776 -110.40364112 78.62066776 -110.29443359 75.79443359 C-110.18341812 74.16035049 -110.18341812 74.16035049 -110.07015991 72.49325562 C-109.82947349 67.45475242 -109.64115741 62.41757682 -109.51025391 57.375 C-109.43486927 54.72092701 -109.28586508 52.10241304 -109.10009766 49.45019531 C-107.72320233 34.5878004 -107.72320233 34.5878004 -113.14505005 21.29675293 C-118.59254853 16.37855922 -124.74944603 12.84672991 -131.23474121 9.4710083 C-134.70966327 7.62248721 -137.75161574 5.4899165 -140.91796875 3.15625 C-142.67406969 1.93691005 -144.4305499 0.71811606 -146.1875 -0.5 C-147.09951172 -1.14324219 -148.01152344 -1.78648437 -148.95117188 -2.44921875 C-149.82708984 -3.05378906 -150.70300781 -3.65835938 -151.60546875 -4.28125 C-152.35981201 -4.80783203 -153.11415527 -5.33441406 -153.89135742 -5.87695312 C-157.91887873 -8.0219801 -160.80816675 -6.84646754 -164.5625 -4.91015625 Z M-11.44555664 104.6965332 C-12.31648453 105.06724442 -13.18741241 105.43795563 -14.08473206 105.81990051 C-15.01712204 106.22609116 -15.94951202 106.6322818 -16.91015625 107.05078125 C-17.87400742 107.46539108 -18.83785858 107.88000092 -19.83091736 108.30717468 C-21.86742204 109.18549895 -23.90234601 110.06749606 -25.93579102 110.95288086 C-29.04963812 112.30690714 -32.16983342 113.64540517 -35.29101562 114.98242188 C-37.26863018 115.83761494 -39.24585719 116.69370486 -41.22265625 117.55078125 C-42.62427757 118.15095818 -42.62427757 118.15095818 -44.05421448 118.76325989 C-44.9219902 119.14342758 -45.78976593 119.52359528 -46.68383789 119.9152832 C-47.82823082 120.41158989 -47.82823082 120.41158989 -48.9957428 120.91792297 C-52.61857287 122.87385018 -54.24663786 124.99233827 -55.54980469 128.85717773 C-55.944711 130.00868568 -55.944711 130.00868568 -56.34759521 131.18345642 C-56.75561371 132.4210244 -56.75561371 132.4210244 -57.171875 133.68359375 C-57.45855042 134.53550797 -57.74522583 135.38742218 -58.04058838 136.26515198 C-58.64335735 138.06500298 -59.24153866 139.86639598 -59.83544922 141.66918945 C-60.74699054 144.42839048 -61.67910681 147.18003202 -62.61328125 149.93164062 C-63.19656873 151.68187351 -63.77864129 153.43251185 -64.359375 155.18359375 C-64.63948425 156.00661484 -64.91959351 156.82963593 -65.20819092 157.67759705 C-65.45885315 158.44842117 -65.70951538 159.2192453 -65.96777344 160.01342773 C-66.19188904 160.68832748 -66.41600464 161.36322723 -66.64691162 162.05857849 C-67.07169222 164.3941926 -66.81263851 165.77804656 -66 168 C-64.38126586 169.97138694 -62.76319132 171.79333523 -61 173.625 C-59.99175506 174.69751031 -58.98394859 175.77043296 -57.9765625 176.84375 C-57.22101074 177.64232422 -57.22101074 177.64232422 -56.45019531 178.45703125 C-54.39029509 180.6487096 -52.3815361 182.88448619 -50.375 185.125 C-48.10480764 187.65650947 -45.83202412 190.18509444 -43.546875 192.703125 C-42.74765625 193.58484375 -41.9484375 194.4665625 -41.125 195.375 C-40.40570312 196.16648437 -39.68640625 196.95796875 -38.9453125 197.7734375 C-37 200 -37 200 -35.73246765 202.11077881 C-34.12617445 204.24147399 -34.12617445 204.24147399 -31.43733215 204.48101807 C-29.90177925 204.4676944 -29.90177925 204.4676944 -28.33520508 204.45410156 C-27.17422806 204.45379944 -26.01325104 204.45349731 -24.8170929 204.45318604 C-22.93729988 204.42221832 -22.93729988 204.42221832 -21.01953125 204.390625 C-19.09484261 204.38213531 -19.09484261 204.38213531 -17.13127136 204.37347412 C-13.72299955 204.35821488 -10.31541161 204.31893221 -6.90740967 204.2746582 C-3.4286016 204.23371078 0.05031718 204.21546434 3.52929688 204.1953125 C10.35314518 204.15243703 17.17653975 204.0841831 24 204 C30.42374896 191.55859903 30.42374896 191.55859903 35.75 178.625 C36.03311035 177.8417334 36.3162207 177.0584668 36.60791016 176.25146484 C39.27066031 168.63816374 41.20079194 160.95796814 42.59814453 153.01904297 C43 151 43 151 44.05859375 147.44140625 C44.92428725 143.70501928 45.16635515 141.67168601 44 138 C40.01995977 133.26919911 34.61332328 129.99332971 29.484375 126.64257812 C26.24020493 124.49765121 23.10865868 122.21474268 19.97045898 119.91870117 C17.72174293 118.27502945 15.45825518 116.65369385 13.19140625 115.03515625 C10.53706724 113.12902828 7.92030966 111.1885652 5.33984375 109.18359375 C4.79046143 108.75852539 4.2410791 108.33345703 3.67504883 107.89550781 C2.23802675 106.77558574 0.8100147 105.64412847 -0.6171875 104.51171875 C-4.53586 102.02561013 -7.46891949 102.9861474 -11.44555664 104.6965332 Z M-211.0625 109.1875 C-212.5027768 110.29053883 -213.9442283 111.39204514 -215.38671875 112.4921875 C-216.14001465 113.06807617 -216.89331055 113.64396484 -217.66943359 114.23730469 C-221.52803268 117.15570877 -225.45039357 119.98386189 -229.375 122.8125 C-230.13159912 123.36413818 -230.88819824 123.91577637 -231.66772461 124.48413086 C-235.72682001 127.43048577 -239.84403057 130.13183649 -244.125 132.75 C-247.55591806 135.19475056 -247.90136511 135.52958747 -248.8125 139.875 C-248.60297618 141.59193134 -248.32017942 143.30022395 -248 145 C-247.8246875 146.24007812 -247.649375 147.48015625 -247.46875 148.7578125 C-244.97459567 165.54007723 -240.05636565 182.00980435 -232 197 C-231.56880859 198.04728271 -231.13761719 199.09456543 -230.69335938 200.17358398 C-226.94188154 204.11039136 -224.0222171 203.85653542 -218.73231506 204.09017944 C-216.8558152 204.11901718 -216.8558152 204.11901718 -214.94140625 204.1484375 C-213.6461351 204.17789459 -212.35086395 204.20735168 -211.01634216 204.23770142 C-208.26989108 204.29166772 -205.52451988 204.31876642 -202.77758789 204.33154297 C-199.97972906 204.3488772 -197.19112158 204.4178649 -194.39575195 204.53662109 C-177.85481826 205.8968299 -177.85481826 205.8968299 -163.3996582 199.60449219 C-160.50302215 196.36692453 -158.27776353 192.89054075 -156.20585632 189.08323669 C-154.19157616 185.60336744 -151.6094704 182.59772134 -149.0625 179.5 C-148.17281173 178.34994738 -147.28598744 177.19767221 -146.40234375 176.04296875 C-144 173 -144 173 -141.87890625 170.73828125 C-140.12971416 168.81767612 -139.00274015 167.3916651 -138 165 C-138.31494377 162.62264317 -138.31494377 162.62264317 -139.21875 160.1171875 C-140.52954614 155.85410011 -141.36226666 151.78175321 -141.9609375 147.36328125 C-144.19815387 134.61454882 -144.19815387 134.61454882 -151.78521729 124.56890869 C-161.12451505 118.50519044 -172.03149795 115.02935355 -182.53271484 111.54394531 C-187.9455376 109.72551703 -193.11055563 107.43850701 -198.3059082 105.07958984 C-204.05407202 102.77615709 -206.65050828 105.74146304 -211.0625 109.1875 Z M-134 188 C-135.022677 189.3077914 -136.06114929 190.60374799 -137.12890625 191.875 C-138.38823035 193.49210959 -139.64683777 195.10981368 -140.89526367 196.73535156 C-143.18308917 199.7075275 -145.50506336 202.60638551 -147.984375 205.421875 C-148.45931396 205.98132813 -148.93425293 206.54078125 -149.42358398 207.1171875 C-150.72864716 208.65142243 -152.0607481 210.16254097 -153.39453125 211.671875 C-156.76378821 218.65632009 -152.21194109 228.14612372 -150.06640625 235.27734375 C-149.78780258 236.21050919 -149.50919891 237.14367462 -149.22215271 238.1051178 C-148.63712648 240.05787547 -148.04961916 242.00989144 -147.4597168 243.96118164 C-146.55844998 246.95093505 -145.67255681 249.94498196 -144.78710938 252.93945312 C-144.21447292 254.84403024 -143.64093726 256.74833728 -143.06640625 258.65234375 C-142.80380508 259.54606186 -142.54120392 260.43977997 -142.27064514 261.36058044 C-142.01705734 262.18896927 -141.76346954 263.01735809 -141.50219727 263.87084961 C-141.28394791 264.59791611 -141.06569855 265.3249826 -140.84083557 266.07408142 C-139.86848103 268.3012418 -138.89310643 269.48306667 -137 271 C-134.44457262 271.67874008 -132.03414044 272.20244409 -129.4375 272.625 C-128.71151611 272.74979736 -127.98553223 272.87459473 -127.23754883 273.00317383 C-125.16059973 273.35199388 -123.08164 273.68052461 -121 274 C-120.13890625 274.13535156 -119.2778125 274.27070313 -118.390625 274.41015625 C-102.07870732 276.46360688 -80.18107805 276.90943641 -65 270 C-63.46671544 267.46892398 -63.46671544 267.46892398 -62.69140625 264.3046875 C-62.33997559 263.12455078 -61.98854492 261.94441406 -61.62646484 260.72851562 C-61.27535645 259.45685547 -60.92424805 258.18519531 -60.5625 256.875 C-60.1839242 255.56644186 -59.80320623 254.25850167 -59.42041016 252.95117188 C-58.6419813 250.28041074 -57.87743289 247.60622042 -57.12255859 244.92871094 C-56.07760235 241.24074991 -54.9637399 237.57641904 -53.83203125 233.9140625 C-53.17923866 231.77617867 -52.5268714 229.6381649 -51.875 227.5 C-51.41395874 226.01669189 -51.41395874 226.01669189 -50.94360352 224.50341797 C-50.67088623 223.58447754 -50.39816895 222.66553711 -50.1171875 221.71875 C-49.87597168 220.92404297 -49.63475586 220.12933594 -49.38623047 219.31054688 C-48.92533924 216.55335688 -49.2025437 214.67197154 -50 212 C-51.65655884 209.92213641 -53.27685434 208.07460525 -55.125 206.1875 C-56.13870624 205.11913951 -57.15172832 204.05012944 -58.1640625 202.98046875 C-58.65551758 202.46661621 -59.14697266 201.95276367 -59.65332031 201.42333984 C-61.32197018 199.65970157 -62.91750652 197.84109607 -64.5 196 C-67.94564508 192.02040508 -71.51122117 188.15502235 -75.09375 184.29882812 C-77.15761379 182.06545391 -79.01323054 179.9785174 -80.61230469 177.38208008 C-84.07068289 173.93183508 -87.0241445 174.14108619 -91.75390625 174.0546875 C-93.03804665 174.01905197 -93.03804665 174.01905197 -94.34812927 173.98269653 C-96.16096461 173.94427002 -97.97414587 173.91994258 -99.78735352 173.90869141 C-102.53433771 173.8753419 -105.26605011 173.74627692 -108.00976562 173.61328125 C-121.59072736 173.28007457 -126.85231424 176.67954314 -134 188 Z " fill="#FFFFFF" transform="translate(600,138)"/>
</svg>
